<?xml version="1.0" encoding="utf-8"?>
<!-- Generator: Adobe Illustrator 17.1.0, SVG Export Plug-In . SVG Version: 6.00 Build 0)  -->
<!DOCTYPE svg PUBLIC "-//W3C//DTD SVG 1.1//EN" "http://www.w3.org/Graphics/SVG/1.1/DTD/svg11.dtd">
<svg version="1.1" id="Layer_1" xmlns="http://www.w3.org/2000/svg" xmlns:xlink="http://www.w3.org/1999/xlink" x="0px" y="0px"
	 viewBox="0 0 960 560" enable-background="new 0 0 960 560" xml:space="preserve">
<linearGradient id="SVGID_1_" gradientUnits="userSpaceOnUse" x1="325.7036" y1="174.1051" x2="545.2212" y2="174.1051">
	<stop  offset="0" style="stop-color:#4D2525"/>
	<stop  offset="1" style="stop-color:#000000"/>
</linearGradient>
<path fill="none" stroke="url(#SVGID_1_)" stroke-width="10" stroke-miterlimit="10" d="M329,302c52.7-47.1,86.1-113.1,92.1-181.5
	c3-34.7-3.5-76.7,13-109.1C450.7-21.2,463,30.2,467,40.6c10.3,26.2,23.4,51.4,35.5,76.9c18,37.7,34.6,77,37.3,118.4
	c2.7,41.3-10.3,85.5-43.2,112.7"/>
<linearGradient id="SVGID_2_" gradientUnits="userSpaceOnUse" x1="450.5782" y1="158.9793" x2="677.6428" y2="158.9793">
	<stop  offset="0" style="stop-color:#4D2525"/>
	<stop  offset="1" style="stop-color:#000000"/>
</linearGradient>
<path fill="none" stroke="url(#SVGID_2_)" stroke-width="10" stroke-miterlimit="10" d="M450.7,0.7c42.3,1,84,15.5,117,40.6
	c42.1,32,68.5,79.5,83.1,128.7c14.6,49.3,18.2,100.7,21.8,151.8"/>
<linearGradient id="SVGID_3_" gradientUnits="userSpaceOnUse" x1="599.6594" y1="366.8308" x2="725.0938" y2="366.8308">
	<stop  offset="0" style="stop-color:#4D2525"/>
	<stop  offset="1" style="stop-color:#000000"/>
</linearGradient>
<linearGradient id="SVGID_4_" gradientUnits="userSpaceOnUse" x1="598.6594" y1="366.8308" x2="726.0938" y2="366.8308">
	<stop  offset="0" style="stop-color:#4D2525"/>
	<stop  offset="1" style="stop-color:#000000"/>
</linearGradient>
<path fill="url(#SVGID_3_)" stroke="url(#SVGID_4_)" stroke-width="2" stroke-miterlimit="10" d="M673.1,423.6
	c-6.4,9.6-15.8,20.5-27.3,18.2c-10.8-2.2-15.4-14.5-18-24.9c-5.2-20.8-10.4-37.6-19-57c-7-16-14.7-39.8-3.5-55.8
	c11-15.8,52-12.4,69.5-12c17,0.4,35.9,4.3,45.1,18.3c6.2,9.5,6.4,21.8,3.1,32.5s-9.7,20.4-15.9,29.8
	C695.7,389.7,684.4,406.6,673.1,423.6z"/>
<linearGradient id="SVGID_5_" gradientUnits="userSpaceOnUse" x1="459.225" y1="384.3308" x2="589.6594" y2="384.3308">
	<stop  offset="0" style="stop-color:#4D2525"/>
	<stop  offset="1" style="stop-color:#000000"/>
</linearGradient>
<linearGradient id="SVGID_6_" gradientUnits="userSpaceOnUse" x1="458.225" y1="384.3308" x2="590.6594" y2="384.3308">
	<stop  offset="0" style="stop-color:#4D2525"/>
	<stop  offset="1" style="stop-color:#000000"/>
</linearGradient>
<path fill="url(#SVGID_5_)" stroke="url(#SVGID_6_)" stroke-width="2" stroke-miterlimit="10" d="M535.6,453.8
	c-6.7,11.7-16.4,25.1-28.4,22.3c-11.3-2.7-16-17.7-18.7-30.5c-5.4-25.4-10.9-46-19.7-69.7c-7.3-19.5-15.3-48.7-3.7-68.2
	c11.5-19.3,54-15.1,72.3-14.6c17.6,0.5,37.4,5.3,46.9,22.3c6.5,11.6,6.6,26.6,3.2,39.8c-3.4,13.2-10,24.9-16.6,36.4
	C559.1,412.3,547.3,433,535.6,453.8z"/>
<linearGradient id="SVGID_7_" gradientUnits="userSpaceOnUse" x1="261.2931" y1="384.3308" x2="412.7274" y2="384.3308">
	<stop  offset="0" style="stop-color:#4D2525"/>
	<stop  offset="1" style="stop-color:#000000"/>
</linearGradient>
<linearGradient id="SVGID_8_" gradientUnits="userSpaceOnUse" x1="260.2931" y1="384.3308" x2="413.7274" y2="384.3308">
	<stop  offset="0" style="stop-color:#4D2525"/>
	<stop  offset="1" style="stop-color:#000000"/>
</linearGradient>
<path fill="url(#SVGID_7_)" stroke="url(#SVGID_8_)" stroke-width="2" stroke-miterlimit="10" d="M349.9,454.3
	c-7.7,11.8-19,25.3-32.9,22.4c-13.1-2.7-18.5-17.9-21.7-30.7c-6.3-25.6-12.6-46.3-22.9-70.2c-8.5-19.7-17.7-49.1-4.3-68.7
	c13.3-19.4,62.7-15.3,84-14.7c20.5,0.5,43.4,5.4,54.4,22.5c7.5,11.7,7.7,26.8,3.7,40.1c-4,13.3-11.7,25.1-19.3,36.7
	C377.2,412.5,363.6,433.4,349.9,454.3z"/>
<rect x="-0.9" y="158.1" fill="none" width="960.9" height="185.2"/>
<text transform="matrix(0.995 0 0 1 49.5547 326.4805)" stroke="#000000" stroke-miterlimit="10" font-family="'Orbitron-Light'" font-size="218.6604">Rowbz</text>
<text transform="matrix(0.995 0 0 1 49.5547 326.4805)" fill="none" stroke="#4D2525" stroke-width="5" stroke-miterlimit="10" font-family="'Orbitron-Light'" font-size="218.6604">Rowbz</text>
</svg>
