<?xml version="1.0" encoding="utf-8"?>
<!-- Generator: Adobe Illustrator 17.1.0, SVG Export Plug-In . SVG Version: 6.00 Build 0)  -->
<!DOCTYPE svg PUBLIC "-//W3C//DTD SVG 1.1//EN" "http://www.w3.org/Graphics/SVG/1.1/DTD/svg11.dtd">
<svg version="1.1" id="Layer_1" xmlns="http://www.w3.org/2000/svg" xmlns:xlink="http://www.w3.org/1999/xlink" x="0px" y="0px"
	 viewBox="0 0 43.8 40" enable-background="new 0 0 43.8 40" xml:space="preserve">
<g opacity="0.85">
	<path fill="#040033" stroke="#000000" stroke-miterlimit="10" d="M41.3,35.5l-2.6-13.8L16.3,3.4l-4.9,1.8c-0.3,1-0.6,2-0.8,2.8
		L3.8,2.4c0,0-0.1,0.1-0.1,0.1l0.1,0.6L3.1,4.6l37.3,30.5L41.3,35.5z"/>
	<path fill="#0F0F0F" stroke="#000000" stroke-miterlimit="10" d="M2.8,4.7l2.6,13.8l22.4,18.3l4.9-1.8c0.3-1,0.6-2,0.8-2.8l6.8,5.6
		c0,0,0.1-0.1,0.1-0.1l0-0.6l0.6-1.6L3.7,5.1L2.8,4.7z"/>
</g>
</svg>
