<?xml version="1.0" encoding="utf-8"?>
<!-- Generator: Adobe Illustrator 17.1.0, SVG Export Plug-In . SVG Version: 6.00 Build 0)  -->
<!DOCTYPE svg PUBLIC "-//W3C//DTD SVG 1.1//EN" "http://www.w3.org/Graphics/SVG/1.1/DTD/svg11.dtd">
<svg version="1.1" id="Layer_1" xmlns="http://www.w3.org/2000/svg" xmlns:xlink="http://www.w3.org/1999/xlink" x="0px" y="0px"
	 viewBox="0 0 46.4 41.3" enable-background="new 0 0 46.4 41.3" xml:space="preserve">
<path fill="#040033" stroke="#000000" stroke-miterlimit="10" d="M8.9,8.8c0.2-3.3,3-5.2,5-4.4s1.2,5.3,1.1,8.7
	c-0.1,2.1,1.5,3,0.9,4.8c-1.2,3.5-3.1,4-4.3,7.5c-0.8-2.9-0.8-2.9-1.6-5.9C9,16.1,8.6,13.2,8.9,8.8z"/>
<path fill="#040033" stroke="#000000" stroke-miterlimit="10" d="M27.7,28.9c3.2,0.8,6.9,1.5,6,3.5c-0.9,2-4.4,3.4-7.8,3.2
	c-2.1-0.1-3.9-0.8-5.8-1.4c-3.5-1.2-4-3.1-7.4-4.3c3-0.8,3-0.8,5.9-1.5C22,27.5,24.2,28.1,27.7,28.9z"/>
<path fill="#040033" stroke="#000000" stroke-miterlimit="10" d="M24.5,14.6c1.4-3,5.9-0.7,6.5,1.4s-1.3,2.1-4.1,4
	c-1.7,1.2-3.7,5.1-5.5,5.7c-3.6,1.2-5.4,0-8.5,1.1c1.9-2.4,2.1-2.2,3.7-4.8C18.5,18.6,23.3,17,24.5,14.6z"/>
</svg>
