<?xml version="1.0" encoding="utf-8"?>
<!-- Generator: Adobe Illustrator 17.1.0, SVG Export Plug-In . SVG Version: 6.00 Build 0)  -->
<!DOCTYPE svg PUBLIC "-//W3C//DTD SVG 1.1//EN" "http://www.w3.org/Graphics/SVG/1.1/DTD/svg11.dtd">
<svg version="1.1" id="Layer_1" xmlns="http://www.w3.org/2000/svg" xmlns:xlink="http://www.w3.org/1999/xlink" x="0px" y="0px"
	 viewBox="372 217 182 136" enable-background="new 372 217 182 136" xml:space="preserve">
<g>
	
		<linearGradient id="SVGID_1_" gradientUnits="userSpaceOnUse" x1="482.1509" y1="220.3953" x2="492.9221" y2="231.1664" gradientTransform="matrix(1 0 0 -1 0 560)">
		<stop  offset="0.7959" style="stop-color:#00941A"/>
		<stop  offset="1" style="stop-color:#CCCCCC"/>
	</linearGradient>
	<path fill="url(#SVGID_1_)" stroke="#025600" stroke-miterlimit="10" d="M502.7,344.1c-9.2-1.7-17.8-5.2-25.3-10.1
		c-0.9-0.6-1.8-1.2-2.7-1.8c0.4-3.9,0.9-7.8,1.4-11.6C489,323.3,499.8,332.8,502.7,344.1z"/>
	
		<linearGradient id="SVGID_2_" gradientUnits="userSpaceOnUse" x1="488.1806" y1="219.6517" x2="526.647" y2="258.1181" gradientTransform="matrix(1 0 0 -1 0 560)">
		<stop  offset="0.9388" style="stop-color:#00941A"/>
		<stop  offset="1" style="stop-color:#CCCCCC"/>
	</linearGradient>
	<path fill="url(#SVGID_2_)" stroke="#025600" stroke-miterlimit="10" d="M466.4,318.6c12.3,4.7,24.8,9.4,38.1,11.3
		c7.8,1.1,15.9,1.2,23.7-0.4c8.8-1.7,12.7-6.4,20.9-2.3c-7.7-11-17.1-22.1-30.4-27.6c-10.4-4.4-23.2-6.5-33.3-1.6
		C476.5,302.2,470.5,310.5,466.4,318.6z"/>
	<path fill="#01002B" stroke="#000000" stroke-miterlimit="10" d="M498.8,260c-0.9,7.2-26.2,11.1-56.4,8.7
		c-30.3-2.4-54.1-10.2-53.2-17.4c0.9-7.2,26.2-11.1,56.4-8.7C475.9,245,499.7,252.8,498.8,260z"/>
	
		<linearGradient id="SVGID_3_" gradientUnits="userSpaceOnUse" x1="490.2276" y1="305.4529" x2="500.8458" y2="323.8441" gradientTransform="matrix(0.9951 9.887733e-002 9.887733e-002 -0.9951 -34.2517 509.4608)">
		<stop  offset="0.7041" style="stop-color:#040033"/>
		<stop  offset="1" style="stop-color:#CCCCCC"/>
	</linearGradient>
	<path fill="url(#SVGID_3_)" stroke="#000000" stroke-miterlimit="10" d="M482.8,253.3c-4.6-3.1-5.7-9.4-2.3-13.6
		c3.4-4.2,10.6-5.6,15.5-3c5.3,2.8,6.9,9.7,3.4,14.2C495.8,255.5,487.8,256.6,482.8,253.3z"/>
	
		<linearGradient id="SVGID_4_" gradientUnits="userSpaceOnUse" x1="490.2276" y1="305.4529" x2="500.8458" y2="323.8441" gradientTransform="matrix(0.9951 9.887733e-002 9.887733e-002 -0.9951 -34.2517 509.4608)">
		<stop  offset="0.7041" style="stop-color:#040033"/>
		<stop  offset="1" style="stop-color:#CCCCCC"/>
	</linearGradient>
	<path fill="url(#SVGID_4_)" stroke="#000000" stroke-miterlimit="10" d="M482.8,253.3c-4.6-3.1-5.7-9.4-2.3-13.6
		c3.4-4.2,10.6-5.6,15.5-3c5.3,2.8,6.9,9.7,3.4,14.2C495.8,255.5,487.8,256.6,482.8,253.3z"/>
	
		<linearGradient id="SVGID_5_" gradientUnits="userSpaceOnUse" x1="497.4507" y1="241.2328" x2="508.0689" y2="259.624" gradientTransform="matrix(0.9951 9.887733e-002 9.887733e-002 -0.9951 -34.2517 509.4608)">
		<stop  offset="0.7041" style="stop-color:#040033"/>
		<stop  offset="1" style="stop-color:#CCCCCC"/>
	</linearGradient>
	<path fill="url(#SVGID_5_)" stroke="#000000" stroke-miterlimit="10" d="M483.7,317.9c-4.6-3.1-5.7-9.4-2.3-13.6
		c3.4-4.2,10.6-5.6,15.5-3c5.3,2.8,6.9,9.7,3.4,14.2C496.7,320.1,488.6,321.2,483.7,317.9z"/>
	
		<linearGradient id="SVGID_6_" gradientUnits="userSpaceOnUse" x1="425.0401" y1="249.4851" x2="435.6583" y2="267.8763" gradientTransform="matrix(0.9951 9.887733e-002 9.887733e-002 -0.9951 -34.2517 509.4608)">
		<stop  offset="0.7041" style="stop-color:#040033"/>
		<stop  offset="1" style="stop-color:#CCCCCC"/>
	</linearGradient>
	<path fill="url(#SVGID_6_)" stroke="#000000" stroke-miterlimit="10" d="M412.4,302.6c-4.6-3.1-5.7-9.4-2.3-13.6
		c3.4-4.2,10.6-5.6,15.5-3c5.3,2.8,6.9,9.7,3.4,14.2C425.4,304.7,417.4,305.8,412.4,302.6z"/>
	
		<linearGradient id="SVGID_7_" gradientUnits="userSpaceOnUse" x1="446.9882" y1="276.731" x2="457.6063" y2="295.1222" gradientTransform="matrix(0.9951 9.887733e-002 9.887733e-002 -0.9951 -34.2517 509.4608)">
		<stop  offset="0.7041" style="stop-color:#040033"/>
		<stop  offset="1" style="stop-color:#CCCCCC"/>
	</linearGradient>
	<path fill="url(#SVGID_7_)" stroke="#000000" stroke-miterlimit="10" d="M437,277.6c-4.6-3.1-5.7-9.4-2.3-13.6
		c3.4-4.2,10.6-5.6,15.5-3c5.3,2.8,6.9,9.7,3.4,14.2C449.9,279.7,441.9,280.9,437,277.6z"/>
	
		<linearGradient id="SVGID_8_" gradientUnits="userSpaceOnUse" x1="426.9421" y1="276.338" x2="437.5603" y2="294.7292" gradientTransform="matrix(0.9951 9.887733e-002 9.887733e-002 -0.9951 -34.2517 509.4608)">
		<stop  offset="0.7041" style="stop-color:#040033"/>
		<stop  offset="1" style="stop-color:#CCCCCC"/>
	</linearGradient>
	<path fill="url(#SVGID_8_)" stroke="#000000" stroke-miterlimit="10" d="M417,276c-4.6-3.1-5.7-9.4-2.3-13.6
		c3.4-4.2,10.6-5.6,15.5-3c5.3,2.8,6.9,9.7,3.4,14.2C430,278.2,421.9,279.3,417,276z"/>
	
		<linearGradient id="SVGID_9_" gradientUnits="userSpaceOnUse" x1="404.3758" y1="275.8913" x2="414.994" y2="294.2826" gradientTransform="matrix(0.9951 9.887733e-002 9.887733e-002 -0.9951 -34.2517 509.4608)">
		<stop  offset="0.7041" style="stop-color:#040033"/>
		<stop  offset="1" style="stop-color:#CCCCCC"/>
	</linearGradient>
	<path fill="url(#SVGID_9_)" stroke="#000000" stroke-miterlimit="10" d="M394.5,274.2c-4.6-3.1-5.7-9.4-2.3-13.6
		c3.4-4.2,10.6-5.6,15.5-3c5.3,2.8,6.9,9.7,3.4,14.2C407.5,276.4,399.4,277.5,394.5,274.2z"/>
	
		<linearGradient id="SVGID_10_" gradientUnits="userSpaceOnUse" x1="393.1212" y1="275.6831" x2="403.7394" y2="294.0743" gradientTransform="matrix(0.9951 9.887733e-002 9.887733e-002 -0.9951 -34.2517 509.4608)">
		<stop  offset="0.7041" style="stop-color:#040033"/>
		<stop  offset="1" style="stop-color:#CCCCCC"/>
	</linearGradient>
	<path fill="url(#SVGID_10_)" stroke="#000000" stroke-miterlimit="10" d="M383.3,273.3c-4.6-3.1-5.7-9.4-2.3-13.6
		c3.4-4.2,10.6-5.6,15.5-3c5.3,2.8,6.9,9.7,3.4,14.2C396.2,275.5,388.2,276.6,383.3,273.3z"/>
	
		<linearGradient id="SVGID_11_" gradientUnits="userSpaceOnUse" x1="438.9958" y1="308.7501" x2="449.614" y2="327.1414" gradientTransform="matrix(0.9951 9.887733e-002 9.887733e-002 -0.9951 -34.2517 509.4608)">
		<stop  offset="0.7041" style="stop-color:#040033"/>
		<stop  offset="1" style="stop-color:#CCCCCC"/>
	</linearGradient>
	<path fill="url(#SVGID_11_)" stroke="#000000" stroke-miterlimit="10" d="M432.2,245c-4.6-3.1-5.7-9.4-2.3-13.6s10.6-5.6,15.5-3
		c5.3,2.8,6.9,9.7,3.4,14.2C445.1,247.1,437.1,248.2,432.2,245z"/>
	
		<linearGradient id="SVGID_12_" gradientUnits="userSpaceOnUse" x1="416.2422" y1="300.8072" x2="426.8604" y2="319.1984" gradientTransform="matrix(0.9951 9.887733e-002 9.887733e-002 -0.9951 -34.2517 509.4608)">
		<stop  offset="0.7041" style="stop-color:#040033"/>
		<stop  offset="1" style="stop-color:#CCCCCC"/>
	</linearGradient>
	<path fill="url(#SVGID_12_)" stroke="#000000" stroke-miterlimit="10" d="M408.8,250.6c-4.6-3.1-5.7-9.4-2.3-13.6
		c3.4-4.2,10.6-5.6,15.5-3c5.3,2.8,6.9,9.7,3.4,14.2C421.8,252.8,413.7,253.9,408.8,250.6z"/>
	
		<linearGradient id="SVGID_13_" gradientUnits="userSpaceOnUse" x1="393.4634" y1="290.6971" x2="404.0816" y2="309.0883" gradientTransform="matrix(0.9951 9.887733e-002 9.887733e-002 -0.9951 -34.2517 509.4608)">
		<stop  offset="0.7041" style="stop-color:#040033"/>
		<stop  offset="1" style="stop-color:#CCCCCC"/>
	</linearGradient>
	<path fill="url(#SVGID_13_)" stroke="#000000" stroke-miterlimit="10" d="M385.1,258.4c-4.6-3.1-5.7-9.4-2.3-13.6s10.6-5.6,15.5-3
		c5.3,2.8,6.9,9.7,3.4,14.2C398.1,260.6,390,261.7,385.1,258.4z"/>
	
		<linearGradient id="SVGID_14_" gradientUnits="userSpaceOnUse" x1="448.0378" y1="217.7517" x2="458.656" y2="236.1429" gradientTransform="matrix(0.9951 9.887733e-002 9.887733e-002 -0.9951 -34.2517 509.4608)">
		<stop  offset="0.7041" style="stop-color:#040033"/>
		<stop  offset="1" style="stop-color:#CCCCCC"/>
	</linearGradient>
	<path fill="url(#SVGID_14_)" stroke="#000000" stroke-miterlimit="10" d="M432.2,336.4c-4.6-3.1-5.7-9.4-2.3-13.6
		c3.4-4.2,10.6-5.6,15.5-3c5.3,2.8,6.9,9.7,3.4,14.2C445.2,338.6,437.1,339.7,432.2,336.4z"/>
	
		<linearGradient id="SVGID_15_" gradientUnits="userSpaceOnUse" x1="459.0418" y1="309.1431" x2="469.66" y2="327.5344" gradientTransform="matrix(0.9951 9.887733e-002 9.887733e-002 -0.9951 -34.2517 509.4608)">
		<stop  offset="0.7041" style="stop-color:#040033"/>
		<stop  offset="1" style="stop-color:#CCCCCC"/>
	</linearGradient>
	<path fill="url(#SVGID_15_)" stroke="#000000" stroke-miterlimit="10" d="M452.2,246.5c-4.6-3.1-5.7-9.4-2.3-13.6
		c3.4-4.2,10.6-5.6,15.5-3c5.3,2.8,6.9,9.7,3.4,14.2C465.1,248.7,457.1,249.8,452.2,246.5z"/>
	
		<linearGradient id="SVGID_16_" gradientUnits="userSpaceOnUse" x1="476.5675" y1="309.4825" x2="487.1857" y2="327.8737" gradientTransform="matrix(0.9951 9.887733e-002 9.887733e-002 -0.9951 -34.2517 509.4608)">
		<stop  offset="0.7041" style="stop-color:#040033"/>
		<stop  offset="1" style="stop-color:#CCCCCC"/>
	</linearGradient>
	<path fill="url(#SVGID_16_)" stroke="#000000" stroke-miterlimit="10" d="M469.7,247.9c-4.6-3.1-5.7-9.4-2.3-13.6
		c3.4-4.2,10.6-5.6,15.5-3c5.3,2.8,6.9,9.7,3.4,14.2C482.6,250.1,474.6,251.2,469.7,247.9z"/>
	
		<linearGradient id="SVGID_17_" gradientUnits="userSpaceOnUse" x1="498.7768" y1="295.9714" x2="509.395" y2="314.3626" gradientTransform="matrix(0.9951 9.887733e-002 9.887733e-002 -0.9951 -34.2517 509.4608)">
		<stop  offset="0.7041" style="stop-color:#040033"/>
		<stop  offset="1" style="stop-color:#CCCCCC"/>
	</linearGradient>
	<path fill="url(#SVGID_17_)" stroke="#000000" stroke-miterlimit="10" d="M490.4,263.6c-4.6-3.1-5.7-9.4-2.3-13.6
		c3.4-4.2,10.6-5.6,15.5-3c5.3,2.8,6.9,9.7,3.4,14.2C503.4,265.7,495.3,266.9,490.4,263.6z"/>
	
		<linearGradient id="SVGID_18_" gradientUnits="userSpaceOnUse" x1="487.4224" y1="292.531" x2="498.0406" y2="310.9222" gradientTransform="matrix(0.9951 9.887733e-002 9.887733e-002 -0.9951 -34.2517 509.4608)">
		<stop  offset="0.7041" style="stop-color:#040033"/>
		<stop  offset="1" style="stop-color:#CCCCCC"/>
	</linearGradient>
	<path fill="url(#SVGID_18_)" stroke="#000000" stroke-miterlimit="10" d="M478.8,265.9c-4.6-3.1-5.7-9.4-2.3-13.6
		c3.4-4.2,10.6-5.6,15.5-3c5.3,2.8,6.9,9.7,3.4,14.2C491.8,268,483.7,269.2,478.8,265.9z"/>
	
		<linearGradient id="SVGID_19_" gradientUnits="userSpaceOnUse" x1="468.337" y1="280.3528" x2="478.9551" y2="298.744" gradientTransform="matrix(0.9951 9.887733e-002 9.887733e-002 -0.9951 -34.2517 509.4608)">
		<stop  offset="0.7041" style="stop-color:#040033"/>
		<stop  offset="1" style="stop-color:#CCCCCC"/>
	</linearGradient>
	<path fill="url(#SVGID_19_)" stroke="#000000" stroke-miterlimit="10" d="M458.6,276.1c-4.6-3.1-5.7-9.4-2.3-13.6s10.6-5.6,15.5-3
		c5.3,2.8,6.9,9.7,3.4,14.2C471.5,278.3,463.5,279.4,458.6,276.1z"/>
	
		<linearGradient id="SVGID_20_" gradientUnits="userSpaceOnUse" x1="448.0378" y1="217.7517" x2="458.656" y2="236.1429" gradientTransform="matrix(0.9951 9.887733e-002 9.887733e-002 -0.9951 -34.2517 509.4608)">
		<stop  offset="0.7041" style="stop-color:#040033"/>
		<stop  offset="1" style="stop-color:#CCCCCC"/>
	</linearGradient>
	<path fill="url(#SVGID_20_)" stroke="#000000" stroke-miterlimit="10" d="M432.2,336.4c-4.6-3.1-5.7-9.4-2.3-13.6
		c3.4-4.2,10.6-5.6,15.5-3c5.3,2.8,6.9,9.7,3.4,14.2C445.2,338.6,437.1,339.7,432.2,336.4z"/>
	
		<linearGradient id="SVGID_21_" gradientUnits="userSpaceOnUse" x1="448.0378" y1="217.7517" x2="458.656" y2="236.1429" gradientTransform="matrix(0.9951 9.887733e-002 9.887733e-002 -0.9951 -34.2517 509.4608)">
		<stop  offset="0.7041" style="stop-color:#040033"/>
		<stop  offset="1" style="stop-color:#CCCCCC"/>
	</linearGradient>
	<path fill="url(#SVGID_21_)" stroke="#000000" stroke-miterlimit="10" d="M432.2,336.4c-4.6-3.1-5.7-9.4-2.3-13.6
		c3.4-4.2,10.6-5.6,15.5-3c5.3,2.8,6.9,9.7,3.4,14.2C445.2,338.6,437.1,339.7,432.2,336.4z"/>
	
		<linearGradient id="SVGID_22_" gradientUnits="userSpaceOnUse" x1="448.0378" y1="217.7517" x2="458.656" y2="236.1429" gradientTransform="matrix(0.9951 9.887733e-002 9.887733e-002 -0.9951 -34.2517 509.4608)">
		<stop  offset="0.7041" style="stop-color:#040033"/>
		<stop  offset="1" style="stop-color:#CCCCCC"/>
	</linearGradient>
	<path fill="url(#SVGID_22_)" stroke="#000000" stroke-miterlimit="10" d="M432.2,336.4c-4.6-3.1-5.7-9.4-2.3-13.6
		c3.4-4.2,10.6-5.6,15.5-3c5.3,2.8,6.9,9.7,3.4,14.2C445.2,338.6,437.1,339.7,432.2,336.4z"/>
	
		<linearGradient id="SVGID_23_" gradientUnits="userSpaceOnUse" x1="448.0378" y1="217.7517" x2="458.656" y2="236.1429" gradientTransform="matrix(0.9951 9.887733e-002 9.887733e-002 -0.9951 -34.2517 509.4608)">
		<stop  offset="0.7041" style="stop-color:#040033"/>
		<stop  offset="1" style="stop-color:#CCCCCC"/>
	</linearGradient>
	<path fill="url(#SVGID_23_)" stroke="#000000" stroke-miterlimit="10" d="M432.2,336.4c-4.6-3.1-5.7-9.4-2.3-13.6
		c3.4-4.2,10.6-5.6,15.5-3c5.3,2.8,6.9,9.7,3.4,14.2C445.2,338.6,437.1,339.7,432.2,336.4z"/>
	
		<linearGradient id="SVGID_24_" gradientUnits="userSpaceOnUse" x1="425.616" y1="221.5994" x2="436.2342" y2="239.9906" gradientTransform="matrix(0.9951 9.887733e-002 9.887733e-002 -0.9951 -34.2517 509.4608)">
		<stop  offset="0.7041" style="stop-color:#040033"/>
		<stop  offset="1" style="stop-color:#CCCCCC"/>
	</linearGradient>
	<path fill="url(#SVGID_24_)" stroke="#000000" stroke-miterlimit="10" d="M410.3,330.4c-4.6-3.1-5.7-9.4-2.3-13.6
		c3.4-4.2,10.6-5.6,15.5-3c5.3,2.8,6.9,9.7,3.4,14.2C423.2,332.5,415.2,333.6,410.3,330.4z"/>
	
		<linearGradient id="SVGID_25_" gradientUnits="userSpaceOnUse" x1="408.4326" y1="236.274" x2="419.0508" y2="254.6652" gradientTransform="matrix(0.9951 9.887733e-002 9.887733e-002 -0.9951 -34.2517 509.4608)">
		<stop  offset="0.7041" style="stop-color:#040033"/>
		<stop  offset="1" style="stop-color:#CCCCCC"/>
	</linearGradient>
	<path fill="url(#SVGID_25_)" stroke="#000000" stroke-miterlimit="10" d="M394.6,314.1c-4.6-3.1-5.7-9.4-2.3-13.6
		c3.4-4.2,10.6-5.6,15.5-3c5.3,2.8,6.9,9.7,3.4,14.2C407.6,316.2,399.5,317.3,394.6,314.1z"/>
	
		<linearGradient id="SVGID_26_" gradientUnits="userSpaceOnUse" x1="397.6477" y1="256.4547" x2="408.2658" y2="274.846" gradientTransform="matrix(0.9951 9.887733e-002 9.887733e-002 -0.9951 -34.2517 509.4608)">
		<stop  offset="0.7041" style="stop-color:#040033"/>
		<stop  offset="1" style="stop-color:#CCCCCC"/>
	</linearGradient>
	<path fill="url(#SVGID_26_)" stroke="#000000" stroke-miterlimit="10" d="M385.9,292.9c-4.6-3.1-5.7-9.4-2.3-13.6
		c3.4-4.2,10.6-5.6,15.5-3c5.3,2.8,6.9,9.7,3.4,14.2C398.9,295,390.8,296.2,385.9,292.9z"/>
	
		<linearGradient id="SVGID_27_" gradientUnits="userSpaceOnUse" x1="446.3613" y1="250.9641" x2="456.9795" y2="269.3553" gradientTransform="matrix(0.9951 9.887733e-002 9.887733e-002 -0.9951 -34.2517 509.4608)">
		<stop  offset="0.7041" style="stop-color:#040033"/>
		<stop  offset="1" style="stop-color:#CCCCCC"/>
	</linearGradient>
	<path fill="url(#SVGID_27_)" stroke="#000000" stroke-miterlimit="10" d="M433.8,303.2c-4.6-3.1-5.7-9.4-2.3-13.6
		c3.4-4.2,10.6-5.6,15.5-3c5.3,2.8,6.9,9.7,3.4,14.2C446.8,305.3,438.7,306.5,433.8,303.2z"/>
	
		<linearGradient id="SVGID_28_" gradientUnits="userSpaceOnUse" x1="501.0826" y1="288.5014" x2="511.7007" y2="306.8927" gradientTransform="matrix(0.9951 9.887733e-002 9.887733e-002 -0.9951 -34.2517 509.4608)">
		<stop  offset="0.7041" style="stop-color:#040033"/>
		<stop  offset="1" style="stop-color:#CCCCCC"/>
	</linearGradient>
	<path fill="url(#SVGID_28_)" stroke="#000000" stroke-miterlimit="10" d="M492,271.2c-4.6-3.1-5.7-9.4-2.3-13.6
		c3.4-4.2,10.6-5.6,15.5-3c5.3,2.8,6.9,9.7,3.4,14.2C504.9,273.4,496.9,274.5,492,271.2z"/>
	
		<linearGradient id="SVGID_29_" gradientUnits="userSpaceOnUse" x1="500.8677" y1="278.8624" x2="511.4859" y2="297.2536" gradientTransform="matrix(0.9951 9.887733e-002 9.887733e-002 -0.9951 -34.2517 509.4608)">
		<stop  offset="0.7041" style="stop-color:#040033"/>
		<stop  offset="1" style="stop-color:#CCCCCC"/>
	</linearGradient>
	<path fill="url(#SVGID_29_)" stroke="#000000" stroke-miterlimit="10" d="M490.8,280.8c-4.6-3.1-5.7-9.4-2.3-13.6
		c3.4-4.2,10.6-5.6,15.5-3c5.3,2.8,6.9,9.7,3.4,14.2C503.8,283,495.7,284.1,490.8,280.8z"/>
	
		<linearGradient id="SVGID_30_" gradientUnits="userSpaceOnUse" x1="431.4112" y1="254.9639" x2="442.0294" y2="273.3551" gradientTransform="matrix(0.9951 9.887733e-002 9.887733e-002 -0.9951 -34.2517 509.4608)">
		<stop  offset="0.7041" style="stop-color:#040033"/>
		<stop  offset="1" style="stop-color:#CCCCCC"/>
	</linearGradient>
	<path fill="url(#SVGID_30_)" stroke="#000000" stroke-miterlimit="10" d="M419.3,297.7c-4.6-3.1-5.7-9.4-2.3-13.6
		c3.4-4.2,10.6-5.6,15.5-3c5.3,2.8,6.9,9.7,3.4,14.2C432.3,299.9,424.2,301,419.3,297.7z"/>
	
		<linearGradient id="SVGID_31_" gradientUnits="userSpaceOnUse" x1="480.5221" y1="266.6573" x2="491.1403" y2="285.0486" gradientTransform="matrix(0.9951 9.887733e-002 9.887733e-002 -0.9951 -34.2517 509.4608)">
		<stop  offset="0.7041" style="stop-color:#040033"/>
		<stop  offset="1" style="stop-color:#CCCCCC"/>
	</linearGradient>
	<path fill="url(#SVGID_31_)" stroke="#000000" stroke-miterlimit="10" d="M469.4,291c-4.6-3.1-5.7-9.4-2.3-13.6
		c3.4-4.2,10.6-5.6,15.5-3c5.3,2.8,6.9,9.7,3.4,14.2C482.3,293.1,474.3,294.2,469.4,291z"/>
	
		<linearGradient id="SVGID_32_" gradientUnits="userSpaceOnUse" x1="476.5715" y1="257.9999" x2="487.1897" y2="276.3912" gradientTransform="matrix(0.9951 9.887733e-002 9.887733e-002 -0.9951 -34.2517 509.4608)">
		<stop  offset="0.7041" style="stop-color:#040033"/>
		<stop  offset="1" style="stop-color:#CCCCCC"/>
	</linearGradient>
	<path fill="url(#SVGID_32_)" stroke="#000000" stroke-miterlimit="10" d="M464.6,299.2c-4.6-3.1-5.7-9.4-2.3-13.6
		c3.4-4.2,10.6-5.6,15.5-3c5.3,2.8,6.9,9.7,3.4,14.2C477.6,301.3,469.5,302.5,464.6,299.2z"/>
	
		<linearGradient id="SVGID_33_" gradientUnits="userSpaceOnUse" x1="412.7402" y1="258.8891" x2="423.3584" y2="277.2804" gradientTransform="matrix(0.9951 9.887733e-002 9.887733e-002 -0.9951 -34.2517 509.4608)">
		<stop  offset="0.7041" style="stop-color:#040033"/>
		<stop  offset="1" style="stop-color:#CCCCCC"/>
	</linearGradient>
	<path fill="url(#SVGID_33_)" stroke="#000000" stroke-miterlimit="10" d="M401.1,292c-4.6-3.1-5.7-9.4-2.3-13.6
		c3.4-4.2,10.6-5.6,15.5-3c5.3,2.8,6.9,9.7,3.4,14.2C414.1,294.1,406,295.3,401.1,292z"/>
	
		<linearGradient id="SVGID_34_" gradientUnits="userSpaceOnUse" x1="468.4408" y1="232.1024" x2="479.059" y2="250.4937" gradientTransform="matrix(0.9951 9.887733e-002 9.887733e-002 -0.9951 -34.2517 509.4608)">
		<stop  offset="0.7041" style="stop-color:#040033"/>
		<stop  offset="1" style="stop-color:#CCCCCC"/>
	</linearGradient>
	<path fill="url(#SVGID_34_)" stroke="#000000" stroke-miterlimit="10" d="M453.9,324.1c-4.6-3.1-5.7-9.4-2.3-13.6
		c3.4-4.2,10.6-5.6,15.5-3c5.3,2.8,6.9,9.7,3.4,14.2C466.9,326.3,458.8,327.4,453.9,324.1z"/>
	
		<linearGradient id="SVGID_35_" gradientUnits="userSpaceOnUse" x1="468.4408" y1="232.1024" x2="479.059" y2="250.4937" gradientTransform="matrix(0.9951 9.887733e-002 9.887733e-002 -0.9951 -34.2517 509.4608)">
		<stop  offset="0.7041" style="stop-color:#040033"/>
		<stop  offset="1" style="stop-color:#CCCCCC"/>
	</linearGradient>
	<path fill="url(#SVGID_35_)" stroke="#000000" stroke-miterlimit="10" d="M453.9,324.1c-4.6-3.1-5.7-9.4-2.3-13.6
		c3.4-4.2,10.6-5.6,15.5-3c5.3,2.8,6.9,9.7,3.4,14.2C466.9,326.3,458.8,327.4,453.9,324.1z"/>
	
		<linearGradient id="SVGID_36_" gradientUnits="userSpaceOnUse" x1="468.4408" y1="232.1024" x2="479.059" y2="250.4937" gradientTransform="matrix(0.9951 9.887733e-002 9.887733e-002 -0.9951 -34.2517 509.4608)">
		<stop  offset="0.7041" style="stop-color:#040033"/>
		<stop  offset="1" style="stop-color:#CCCCCC"/>
	</linearGradient>
	<path fill="url(#SVGID_36_)" stroke="#000000" stroke-miterlimit="10" d="M453.9,324.1c-4.6-3.1-5.7-9.4-2.3-13.6
		c3.4-4.2,10.6-5.6,15.5-3c5.3,2.8,6.9,9.7,3.4,14.2C466.9,326.3,458.8,327.4,453.9,324.1z"/>
	
		<linearGradient id="SVGID_37_" gradientUnits="userSpaceOnUse" x1="468.4408" y1="232.1024" x2="479.059" y2="250.4937" gradientTransform="matrix(0.9951 9.887733e-002 9.887733e-002 -0.9951 -34.2517 509.4608)">
		<stop  offset="0.7041" style="stop-color:#040033"/>
		<stop  offset="1" style="stop-color:#CCCCCC"/>
	</linearGradient>
	<path fill="url(#SVGID_37_)" stroke="#000000" stroke-miterlimit="10" d="M453.9,324.1c-4.6-3.1-5.7-9.4-2.3-13.6
		c3.4-4.2,10.6-5.6,15.5-3c5.3,2.8,6.9,9.7,3.4,14.2C466.9,326.3,458.8,327.4,453.9,324.1z"/>
	
		<linearGradient id="SVGID_38_" gradientUnits="userSpaceOnUse" x1="468.4408" y1="232.1024" x2="479.059" y2="250.4937" gradientTransform="matrix(0.9951 9.887733e-002 9.887733e-002 -0.9951 -34.2517 509.4608)">
		<stop  offset="0.7041" style="stop-color:#040033"/>
		<stop  offset="1" style="stop-color:#CCCCCC"/>
	</linearGradient>
	<path fill="url(#SVGID_38_)" stroke="#000000" stroke-miterlimit="10" d="M453.9,324.1c-4.6-3.1-5.7-9.4-2.3-13.6
		c3.4-4.2,10.6-5.6,15.5-3c5.3,2.8,6.9,9.7,3.4,14.2C466.9,326.3,458.8,327.4,453.9,324.1z"/>
	
		<linearGradient id="SVGID_39_" gradientUnits="userSpaceOnUse" x1="468.0838" y1="218.1447" x2="478.702" y2="236.5359" gradientTransform="matrix(0.9951 9.887733e-002 9.887733e-002 -0.9951 -34.2517 509.4608)">
		<stop  offset="0.7041" style="stop-color:#040033"/>
		<stop  offset="1" style="stop-color:#CCCCCC"/>
	</linearGradient>
	<path fill="url(#SVGID_39_)" stroke="#000000" stroke-miterlimit="10" d="M452.2,338c-4.6-3.1-5.7-9.4-2.3-13.6
		c3.4-4.2,10.6-5.6,15.5-3c5.3,2.8,6.9,9.7,3.4,14.2C465.2,340.1,457.1,341.3,452.2,338z"/>
	
		<linearGradient id="SVGID_40_" gradientUnits="userSpaceOnUse" x1="448.2824" y1="227.3937" x2="458.9006" y2="245.7849" gradientTransform="matrix(0.9951 9.887733e-002 9.887733e-002 -0.9951 -34.2517 509.4608)">
		<stop  offset="0.7041" style="stop-color:#040033"/>
		<stop  offset="1" style="stop-color:#CCCCCC"/>
	</linearGradient>
	<path fill="url(#SVGID_40_)" stroke="#000000" stroke-miterlimit="10" d="M433.4,326.8c-4.6-3.1-5.7-9.4-2.3-13.6
		c3.4-4.2,10.6-5.6,15.5-3c5.3,2.8,6.9,9.7,3.4,14.2C446.4,329,438.3,330.1,433.4,326.8z"/>
	
		<linearGradient id="SVGID_41_" gradientUnits="userSpaceOnUse" x1="479.483" y1="222.6472" x2="490.1012" y2="241.0385" gradientTransform="matrix(0.9951 9.887733e-002 9.887733e-002 -0.9951 -34.2517 509.4608)">
		<stop  offset="0.7041" style="stop-color:#040033"/>
		<stop  offset="1" style="stop-color:#CCCCCC"/>
	</linearGradient>
	<path fill="url(#SVGID_41_)" stroke="#000000" stroke-miterlimit="10" d="M464,334.6c-4.6-3.1-5.7-9.4-2.3-13.6
		c3.4-4.2,10.6-5.6,15.5-3c5.3,2.8,6.9,9.7,3.4,14.2C476.9,336.8,468.9,337.9,464,334.6z"/>
	
		<linearGradient id="SVGID_42_" gradientUnits="userSpaceOnUse" x1="442.2661" y1="238.0124" x2="452.8843" y2="256.4036" gradientTransform="matrix(0.9951 9.887733e-002 9.887733e-002 -0.9951 -34.2517 509.4608)">
		<stop  offset="0.7041" style="stop-color:#040033"/>
		<stop  offset="1" style="stop-color:#CCCCCC"/>
	</linearGradient>
	<path fill="url(#SVGID_42_)" stroke="#000000" stroke-miterlimit="10" d="M428.5,315.7c-4.6-3.1-5.7-9.4-2.3-13.6
		c3.4-4.2,10.6-5.6,15.5-3c5.3,2.8,6.9,9.7,3.4,14.2C441.4,317.8,433.4,319,428.5,315.7z"/>
	
		<linearGradient id="SVGID_43_" gradientUnits="userSpaceOnUse" x1="403.6765" y1="246.9196" x2="414.2947" y2="265.3108" gradientTransform="matrix(0.9951 9.887733e-002 9.887733e-002 -0.9951 -34.2517 509.4608)">
		<stop  offset="0.7041" style="stop-color:#040033"/>
		<stop  offset="1" style="stop-color:#CCCCCC"/>
	</linearGradient>
	<path fill="url(#SVGID_43_)" stroke="#000000" stroke-miterlimit="10" d="M390.9,303c-4.6-3.1-5.7-9.4-2.3-13.6
		c3.4-4.2,10.6-5.6,15.5-3c5.3,2.8,6.9,9.7,3.4,14.2C403.9,305.1,395.8,306.3,390.9,303z"/>
	
		<linearGradient id="SVGID_44_" gradientUnits="userSpaceOnUse" x1="497.6355" y1="248.7534" x2="508.2537" y2="267.1447" gradientTransform="matrix(0.9951 9.887733e-002 9.887733e-002 -0.9951 -34.2517 509.4608)">
		<stop  offset="0.7041" style="stop-color:#040033"/>
		<stop  offset="1" style="stop-color:#CCCCCC"/>
	</linearGradient>
	<path fill="url(#SVGID_44_)" stroke="#000000" stroke-miterlimit="10" d="M484.6,310.5c-4.6-3.1-5.7-9.4-2.3-13.6
		c3.4-4.2,10.6-5.6,15.5-3c5.3,2.8,6.9,9.7,3.4,14.2C497.6,312.6,489.5,313.7,484.6,310.5z"/>
	
		<linearGradient id="SVGID_45_" gradientUnits="userSpaceOnUse" x1="488.4594" y1="232.4681" x2="499.0776" y2="250.8594" gradientTransform="matrix(0.9951 9.887733e-002 9.887733e-002 -0.9951 -34.2517 509.4608)">
		<stop  offset="0.7041" style="stop-color:#040033"/>
		<stop  offset="1" style="stop-color:#CCCCCC"/>
	</linearGradient>
	<path fill="url(#SVGID_45_)" stroke="#000000" stroke-miterlimit="10" d="M473.9,325.8c-4.6-3.1-5.7-9.4-2.3-13.6
		c3.4-4.2,10.6-5.6,15.5-3c5.3,2.8,6.9,9.7,3.4,14.2C486.9,327.9,478.8,329,473.9,325.8z"/>
	
		<linearGradient id="SVGID_46_" gradientUnits="userSpaceOnUse" x1="500.4981" y1="263.8211" x2="511.1163" y2="282.2123" gradientTransform="matrix(0.9951 9.887733e-002 9.887733e-002 -0.9951 -34.2517 509.4608)">
		<stop  offset="0.7041" style="stop-color:#040033"/>
		<stop  offset="1" style="stop-color:#CCCCCC"/>
	</linearGradient>
	<path fill="url(#SVGID_46_)" stroke="#000000" stroke-miterlimit="10" d="M489,295.7c-4.6-3.1-5.7-9.4-2.3-13.6
		c3.4-4.2,10.6-5.6,15.5-3c5.3,2.8,6.9,9.7,3.4,14.2C501.9,297.9,493.9,299,489,295.7z"/>
	
		<linearGradient id="SVGID_47_" gradientUnits="userSpaceOnUse" x1="488.8739" y1="248.5716" x2="499.492" y2="266.9628" gradientTransform="matrix(0.9951 9.887733e-002 9.887733e-002 -0.9951 -34.2517 509.4608)">
		<stop  offset="0.7041" style="stop-color:#040033"/>
		<stop  offset="1" style="stop-color:#CCCCCC"/>
	</linearGradient>
	<path fill="url(#SVGID_47_)" stroke="#000000" stroke-miterlimit="10" d="M475.9,309.8c-4.6-3.1-5.7-9.4-2.3-13.6
		c3.4-4.2,10.6-5.6,15.5-3c5.3,2.8,6.9,9.7,3.4,14.2C488.8,311.9,480.8,313.1,475.9,309.8z"/>
	
		<linearGradient id="SVGID_48_" gradientUnits="userSpaceOnUse" x1="460.3246" y1="255.7719" x2="470.7373" y2="273.8073" gradientTransform="matrix(0.9951 9.887733e-002 9.887733e-002 -0.9951 -34.2517 509.4608)">
		<stop  offset="0.7041" style="stop-color:#040033"/>
		<stop  offset="1" style="stop-color:#CCCCCC"/>
	</linearGradient>
	<path fill="url(#SVGID_48_)" stroke="#000000" stroke-miterlimit="10" d="M457.6,282.3c5.7,1.1,9.8,6.4,8.9,11.4
		c-0.9,5-6.8,8.9-12.6,8.3c-6.2-0.6-11.2-6.2-10.2-11.5C444.8,285.1,451.5,281.1,457.6,282.3z"/>
	
		<linearGradient id="SVGID_49_" gradientUnits="userSpaceOnUse" x1="404.8752" y1="296.2832" x2="415.4934" y2="314.6744" gradientTransform="matrix(0.9951 9.887733e-002 9.887733e-002 -0.9951 -34.2517 509.4608)">
		<stop  offset="0.7041" style="stop-color:#040033"/>
		<stop  offset="1" style="stop-color:#CCCCCC"/>
	</linearGradient>
	<path fill="url(#SVGID_49_)" stroke="#000000" stroke-miterlimit="10" d="M397,254c-4.6-3.1-5.7-9.4-2.3-13.6
		c3.3-4.2,10.6-5.6,15.5-3c5.3,2.8,6.9,9.7,3.4,14.2C410,256.1,401.9,257.3,397,254z"/>
	
		<linearGradient id="SVGID_50_" gradientUnits="userSpaceOnUse" x1="419.4724" y1="226.8432" x2="430.0905" y2="245.2344" gradientTransform="matrix(0.9951 9.887733e-002 9.887733e-002 -0.9951 -34.2517 509.4608)">
		<stop  offset="0.7041" style="stop-color:#040033"/>
		<stop  offset="1" style="stop-color:#CCCCCC"/>
	</linearGradient>
	<path fill="url(#SVGID_50_)" stroke="#000000" stroke-miterlimit="10" d="M404.7,324.5c-4.6-3.1-5.7-9.4-2.3-13.6
		c3.4-4.2,10.6-5.6,15.5-3c5.3,2.8,6.9,9.7,3.4,14.2C417.7,326.7,409.6,327.8,404.7,324.5z"/>
	
		<linearGradient id="SVGID_51_" gradientUnits="userSpaceOnUse" x1="425.1635" y1="306.3426" x2="435.7816" y2="324.7338" gradientTransform="matrix(0.9951 9.887733e-002 9.887733e-002 -0.9951 -34.2517 509.4608)">
		<stop  offset="0.7041" style="stop-color:#040033"/>
		<stop  offset="1" style="stop-color:#CCCCCC"/>
	</linearGradient>
	<path fill="url(#SVGID_51_)" stroke="#000000" stroke-miterlimit="10" d="M418.2,246c-4.6-3.1-5.7-9.4-2.3-13.6
		c3.4-4.2,10.6-5.6,15.5-3c5.3,2.8,6.9,9.7,3.4,14.2C431.1,248.1,423.1,249.3,418.2,246z"/>
	
		<linearGradient id="SVGID_52_" gradientUnits="userSpaceOnUse" x1="424.7979" y1="239.8187" x2="435.4161" y2="258.21" gradientTransform="matrix(0.9951 9.887733e-002 9.887733e-002 -0.9951 -34.2517 509.4608)">
		<stop  offset="0.7041" style="stop-color:#040033"/>
		<stop  offset="1" style="stop-color:#CCCCCC"/>
	</linearGradient>
	<path fill="url(#SVGID_52_)" stroke="#000000" stroke-miterlimit="10" d="M411.3,312.1c-4.6-3.1-5.7-9.4-2.3-13.6
		c3.4-4.2,10.6-5.6,15.5-3c5.3,2.8,6.9,9.7,3.4,14.2C424.2,314.3,416.2,315.4,411.3,312.1z"/>
	
		<linearGradient id="SVGID_53_" gradientUnits="userSpaceOnUse" x1="487.28" y1="286.0968" x2="497.8982" y2="304.4881" gradientTransform="matrix(0.9951 9.887733e-002 9.887733e-002 -0.9951 -34.2517 509.4608)">
		<stop  offset="0.7041" style="stop-color:#040033"/>
		<stop  offset="1" style="stop-color:#CCCCCC"/>
	</linearGradient>
	<path fill="url(#SVGID_53_)" stroke="#000000" stroke-miterlimit="10" d="M478,272.3c-4.6-3.1-5.7-9.4-2.3-13.6
		c3.4-4.2,10.6-5.6,15.5-3c5.3,2.8,6.9,9.7,3.4,14.2C491,274.4,482.9,275.6,478,272.3z"/>
	
		<linearGradient id="SVGID_54_" gradientUnits="userSpaceOnUse" x1="479.925" y1="240.8934" x2="490.5432" y2="259.2846" gradientTransform="matrix(0.9951 9.887733e-002 9.887733e-002 -0.9951 -34.2517 509.4608)">
		<stop  offset="0.7041" style="stop-color:#040033"/>
		<stop  offset="1" style="stop-color:#CCCCCC"/>
	</linearGradient>
	<path fill="url(#SVGID_54_)" stroke="#000000" stroke-miterlimit="10" d="M466.2,316.5c-4.6-3.1-5.7-9.4-2.3-13.6
		c3.4-4.2,10.6-5.6,15.5-3c5.3,2.8,6.9,9.7,3.4,14.2C479.2,318.7,471.1,319.8,466.2,316.5z"/>
	
		<linearGradient id="SVGID_55_" gradientUnits="userSpaceOnUse" x1="459.7492" y1="235.1498" x2="470.3674" y2="253.5411" gradientTransform="matrix(0.9951 9.887733e-002 9.887733e-002 -0.9951 -34.2517 509.4608)">
		<stop  offset="0.7041" style="stop-color:#040033"/>
		<stop  offset="1" style="stop-color:#CCCCCC"/>
	</linearGradient>
	<path fill="url(#SVGID_55_)" stroke="#000000" stroke-miterlimit="10" d="M445.6,320.2c-4.6-3.1-5.7-9.4-2.3-13.6
		c3.4-4.2,10.6-5.6,15.5-3c5.3,2.8,6.9,9.7,3.4,14.2C458.5,322.4,450.5,323.6,445.6,320.2z"/>
	
		<linearGradient id="SVGID_56_" gradientUnits="userSpaceOnUse" x1="392.7642" y1="261.7254" x2="403.3824" y2="280.1166" gradientTransform="matrix(0.9951 9.887733e-002 9.887733e-002 -0.9951 -34.2517 509.4608)">
		<stop  offset="0.7041" style="stop-color:#040033"/>
		<stop  offset="1" style="stop-color:#CCCCCC"/>
	</linearGradient>
	<path fill="url(#SVGID_56_)" stroke="#000000" stroke-miterlimit="10" d="M381.5,287.2c-4.6-3.1-5.7-9.4-2.3-13.6
		c3.4-4.2,10.6-5.6,15.5-3c5.3,2.8,6.9,9.7,3.4,14.2C394.5,289.3,386.4,290.5,381.5,287.2z"/>
	
		<linearGradient id="SVGID_57_" gradientUnits="userSpaceOnUse" x1="392.7642" y1="261.7254" x2="403.3824" y2="280.1166" gradientTransform="matrix(0.9951 9.887733e-002 9.887733e-002 -0.9951 -34.2517 509.4608)">
		<stop  offset="0.7041" style="stop-color:#040033"/>
		<stop  offset="1" style="stop-color:#CCCCCC"/>
	</linearGradient>
	<path fill="url(#SVGID_57_)" stroke="#000000" stroke-miterlimit="10" d="M381.5,287.2c-4.6-3.1-5.7-9.4-2.3-13.6
		c3.4-4.2,10.6-5.6,15.5-3c5.3,2.8,6.9,9.7,3.4,14.2C394.5,289.3,386.4,290.5,381.5,287.2z"/>
	
		<linearGradient id="SVGID_58_" gradientUnits="userSpaceOnUse" x1="393.2062" y1="279.9716" x2="403.8244" y2="298.3628" gradientTransform="matrix(0.9951 9.887733e-002 9.887733e-002 -0.9951 -34.2517 509.4608)">
		<stop  offset="0.7041" style="stop-color:#040033"/>
		<stop  offset="1" style="stop-color:#CCCCCC"/>
	</linearGradient>
	<path fill="url(#SVGID_58_)" stroke="#000000" stroke-miterlimit="10" d="M383.8,269.1c-4.6-3.1-5.7-9.4-2.3-13.6
		c3.4-4.2,10.6-5.6,15.5-3c5.3,2.8,6.9,9.7,3.4,14.2C396.7,271.2,388.7,272.3,383.8,269.1z"/>
	
		<linearGradient id="SVGID_59_" gradientUnits="userSpaceOnUse" x1="466.3499" y1="249.2114" x2="476.9681" y2="267.6027" gradientTransform="matrix(0.9951 9.887733e-002 9.887733e-002 -0.9951 -34.2517 509.4608)">
		<stop  offset="0.7041" style="stop-color:#040033"/>
		<stop  offset="1" style="stop-color:#CCCCCC"/>
	</linearGradient>
	<path fill="url(#SVGID_59_)" stroke="#000000" stroke-miterlimit="10" d="M453.5,306.9c-4.6-3.1-5.7-9.4-2.3-13.6
		c3.4-4.2,10.6-5.6,15.5-3c5.3,2.8,6.9,9.7,3.4,14.2C466.5,309,458.4,310.2,453.5,306.9z"/>
	
		<linearGradient id="SVGID_60_" gradientUnits="userSpaceOnUse" x1="486.8506" y1="268.9342" x2="497.4688" y2="287.3254" gradientTransform="matrix(0.9951 9.887733e-002 9.887733e-002 -0.9951 -34.2517 509.4608)">
		<stop  offset="0.7041" style="stop-color:#040033"/>
		<stop  offset="1" style="stop-color:#CCCCCC"/>
	</linearGradient>
	<path fill="url(#SVGID_60_)" stroke="#000000" stroke-miterlimit="10" d="M475.9,289.3c-4.6-3.1-5.7-9.4-2.3-13.6
		c3.4-4.2,10.6-5.6,15.5-3c5.3,2.8,6.9,9.7,3.4,14.2C488.9,291.5,480.8,292.6,475.9,289.3z"/>
	
		<linearGradient id="SVGID_61_" gradientUnits="userSpaceOnUse" x1="423.8524" y1="252.6632" x2="434.4706" y2="271.0544" gradientTransform="matrix(0.9951 9.887733e-002 9.887733e-002 -0.9951 -34.2517 509.4608)">
		<stop  offset="0.7041" style="stop-color:#040033"/>
		<stop  offset="1" style="stop-color:#CCCCCC"/>
	</linearGradient>
	<path fill="url(#SVGID_61_)" stroke="#000000" stroke-miterlimit="10" d="M411.6,299.3c-4.6-3.1-5.7-9.4-2.3-13.6
		c3.4-4.2,10.6-5.6,15.5-3c5.3,2.8,6.9,9.7,3.4,14.2C424.6,301.4,416.5,302.6,411.6,299.3z"/>
	
		<linearGradient id="SVGID_62_" gradientUnits="userSpaceOnUse" x1="446.3889" y1="253.1069" x2="457.0071" y2="271.4981" gradientTransform="matrix(0.9951 9.887733e-002 9.887733e-002 -0.9951 -34.2517 509.4608)">
		<stop  offset="0.7041" style="stop-color:#040033"/>
		<stop  offset="1" style="stop-color:#CCCCCC"/>
	</linearGradient>
	<path fill="url(#SVGID_62_)" stroke="#000000" stroke-miterlimit="10" d="M434,301.1c-4.6-3.1-5.7-9.4-2.3-13.6
		c3.4-4.2,10.6-5.6,15.5-3c5.3,2.8,6.9,9.7,3.4,14.2C447,303.2,439,304.3,434,301.1z"/>
	
		<linearGradient id="SVGID_63_" gradientUnits="userSpaceOnUse" x1="415.3582" y1="264.3148" x2="425.9763" y2="282.706" gradientTransform="matrix(0.9951 9.887733e-002 9.887733e-002 -0.9951 -34.2517 509.4608)">
		<stop  offset="0.7041" style="stop-color:#040033"/>
		<stop  offset="1" style="stop-color:#CCCCCC"/>
	</linearGradient>
	<path fill="url(#SVGID_63_)" stroke="#000000" stroke-miterlimit="10" d="M404.3,286.8c-4.6-3.1-5.7-9.4-2.3-13.6
		c3.4-4.2,10.6-5.6,15.5-3c5.3,2.8,6.9,9.7,3.4,14.2C417.3,289,409.2,290.1,404.3,286.8z"/>
	
		<linearGradient id="SVGID_64_" gradientUnits="userSpaceOnUse" x1="465.6018" y1="270.6601" x2="476.22" y2="289.0513" gradientTransform="matrix(0.9951 9.887733e-002 9.887733e-002 -0.9951 -34.2517 509.4608)">
		<stop  offset="0.7041" style="stop-color:#040033"/>
		<stop  offset="1" style="stop-color:#CCCCCC"/>
	</linearGradient>
	<path fill="url(#SVGID_64_)" stroke="#000000" stroke-miterlimit="10" d="M454.9,285.5c-4.6-3.1-5.7-9.4-2.3-13.6
		c3.4-4.2,10.6-5.6,15.5-3c5.3,2.8,6.9,9.7,3.4,14.2C467.9,287.6,459.8,288.8,454.9,285.5z"/>
	
		<linearGradient id="SVGID_65_" gradientUnits="userSpaceOnUse" x1="454.2348" y1="266.1361" x2="464.853" y2="284.5273" gradientTransform="matrix(0.9951 9.887733e-002 9.887733e-002 -0.9951 -34.2517 509.4608)">
		<stop  offset="0.7041" style="stop-color:#040033"/>
		<stop  offset="1" style="stop-color:#CCCCCC"/>
	</linearGradient>
	<path fill="url(#SVGID_65_)" stroke="#000000" stroke-miterlimit="10" d="M443.1,288.9c-4.6-3.1-5.7-9.4-2.3-13.6
		c3.4-4.2,10.6-5.6,15.5-3c5.3,2.8,6.9,9.7,3.4,14.2C456.1,291,448.1,292.2,443.1,288.9z"/>
	
		<linearGradient id="SVGID_66_" gradientUnits="userSpaceOnUse" x1="435.4041" y1="264.7078" x2="446.0223" y2="283.099" gradientTransform="matrix(0.9951 9.887733e-002 9.887733e-002 -0.9951 -34.2517 509.4608)">
		<stop  offset="0.7041" style="stop-color:#040033"/>
		<stop  offset="1" style="stop-color:#CCCCCC"/>
	</linearGradient>
	<path fill="url(#SVGID_66_)" stroke="#000000" stroke-miterlimit="10" d="M424.3,288.4c-4.6-3.1-5.7-9.4-2.3-13.6
		c3.4-4.2,10.6-5.6,15.5-3c5.3,2.8,6.9,9.7,3.4,14.2C437.2,290.6,429.2,291.7,424.3,288.4z"/>
	
		<linearGradient id="SVGID_67_" gradientUnits="userSpaceOnUse" x1="434.5075" y1="227.1318" x2="445.1256" y2="245.5231" gradientTransform="matrix(0.9951 9.887733e-002 9.887733e-002 -0.9951 -34.2517 509.4608)">
		<stop  offset="0.7041" style="stop-color:#040033"/>
		<stop  offset="1" style="stop-color:#CCCCCC"/>
	</linearGradient>
	<path fill="url(#SVGID_67_)" stroke="#000000" stroke-miterlimit="10" d="M419.7,325.7c-4.6-3.1-5.7-9.4-2.3-13.6
		c3.4-4.2,10.6-5.6,15.5-3c5.3,2.8,6.9,9.7,3.4,14.2C432.6,327.9,424.6,329,419.7,325.7z"/>
	
		<linearGradient id="SVGID_68_" gradientUnits="userSpaceOnUse" x1="442.3659" y1="241.2446" x2="452.9841" y2="259.6358" gradientTransform="matrix(0.9951 9.887733e-002 9.887733e-002 -0.9951 -34.2517 509.4608)">
		<stop  offset="0.7041" style="stop-color:#040033"/>
		<stop  offset="1" style="stop-color:#CCCCCC"/>
	</linearGradient>
	<path fill="url(#SVGID_68_)" stroke="#000000" stroke-miterlimit="10" d="M428.9,312.5c-4.6-3.1-5.7-9.4-2.3-13.6
		c3.4-4.2,10.6-5.6,15.5-3c5.3,2.8,6.9,9.7,3.4,14.2C441.8,314.6,433.8,315.7,428.9,312.5z"/>
</g>
</svg>
