<?xml version="1.0" encoding="utf-8"?>
<!-- Generator: Adobe Illustrator 17.1.0, SVG Export Plug-In . SVG Version: 6.00 Build 0)  -->
<!DOCTYPE svg PUBLIC "-//W3C//DTD SVG 1.1//EN" "http://www.w3.org/Graphics/SVG/1.1/DTD/svg11.dtd">
<svg version="1.1" id="Layer_1" xmlns="http://www.w3.org/2000/svg" xmlns:xlink="http://www.w3.org/1999/xlink" x="0px" y="0px"
	 viewBox="378 208 110 273" enable-background="new 378 208 110 273" xml:space="preserve">
<g>
	<g>
		<path fill="#03B100" d="M482.3,220.6c0,0-1.1,0.3-3.3,0.7c-2.1,0.5-5.1,1.4-8.8,2.8c-3.7,1.4-8,3.5-12.5,6.3
			c-2.3,1.4-4.5,3.1-6.8,4.9c-2.3,1.9-4.6,3.9-6.8,6.2c-4.4,4.6-8.5,10.1-11.7,16.4c-3.2,6.2-5.3,13.3-5.9,20.4l0,0.3l0,0.2
			c0-0.2,0,0.5,0-0.3l0,0.1l0,0.8l0,1.6c0,1.1-0.1,2.2-0.1,3.3c0.1,1.8,0.2,3.5,0.3,5.4c0.5,3.9,1.1,7.9,2,12
			c1.9,8.2,4.6,16.7,7.4,25.5c2.7,8.9,5.6,18.2,7.3,28c0.2,1.2,0.4,2.4,0.6,3.7c0.2,1.2,0.3,2.5,0.4,3.7c0.1,1.2,0.3,2.5,0.4,3.7
			c0,1.3,0.1,2.5,0.1,3.8l0.1,1.9l0,0.5l0,0.2l0,0.6l0,0.8c-0.1,1.1-0.1,2.2-0.2,3.3c0,2-0.4,4.8-0.8,7.3c-0.3,2.6-0.9,4.8-1.3,7.2
			c-0.4,2.3-1.2,4.5-1.8,6.7c-0.6,2.2-1.4,4.3-2.2,6.4c-0.4,1-0.7,2.1-1.2,3.1c-0.4,1-0.9,2-1.3,3c-3.5,7.8-7.6,14.6-11.7,20.6
			c-4.1,6-8.2,11.1-12,15.5c-1.9,2.2-3.6,4.2-5.3,6.1c-1.7,1.8-3.3,3.5-4.7,5c-2.8,3-5.2,5.2-6.8,6.8c-1.6,1.5-2.5,2.3-2.5,2.3
			l-1-0.7c0,0,0.7-0.9,2-2.7c1.3-1.8,3.2-4.3,5.5-7.6c1.2-1.7,2.5-3.5,3.9-5.5c1.4-2,2.9-4.2,4.4-6.5c3.1-4.7,6.5-10.1,9.9-16.1
			c3.4-6.1,6.7-12.8,9.5-20.2c2.8-7.4,5-15.5,5.8-24.1c0.2-2.1,0.5-4.2,0.4-6.5c0-1.1,0-2.2,0-3.3l0-0.8l-0.1-0.8l-0.1-1.7
			c-0.1-1.1-0.1-2.2-0.2-3.3c-0.1-1.1-0.3-2.2-0.4-3.3c-0.2-1.1-0.3-2.2-0.5-3.3c-0.2-1.1-0.4-2.2-0.6-3.3
			c-1.8-8.9-4.5-17.7-7.3-26.6c-2.8-8.9-5.5-17.8-7.3-26.8c-0.5-2.2-0.8-4.5-1.1-6.8c-0.2-1.1-0.3-2.3-0.4-3.4
			c-0.1-1.1-0.2-2.3-0.3-3.4c-0.1-2.3-0.1-4.6-0.1-6.8c0.1-1.1,0.2-2.2,0.2-3.3l0.1-1.6l0.1-0.8c0-0.4,0.1-0.6,0.1-0.9
			c1.2-8.8,4.3-17,8.5-23.9c4.2-6.9,9.4-12.7,14.8-17.2c5.4-4.6,11-7.9,16.2-10.3c5.2-2.4,10-3.8,14-4.7c4-0.9,7.2-1.2,9.4-1.4
			c2.2-0.1,3.3-0.1,3.3-0.1L482.3,220.6z"/>
	</g>
	<path fill="none" stroke="#150F00" stroke-miterlimit="10" d="M389.7,461.7c1.6,0.7,2.9,2.9,3.2,5.3c1.1,0.8,2.1,3.6,1.8,5.3
		c-0.3,0-0.7,0-1,0"/>
</g>
</svg>
